<svg xmlns="http://www.w3.org/2000/svg" xmlns:xlink="http://www.w3.org/1999/xlink" width="500" zoomAndPan="magnify" viewBox="0 0 375 374.999991" height="500" preserveAspectRatio="xMidYMid meet" version="1.0"><defs><g/><clipPath id="a5f787fe7f"><path d="M 75.246094 20.152344 L 292.207031 20.152344 L 292.207031 237.117188 L 75.246094 237.117188 Z M 75.246094 20.152344 " clip-rule="nonzero"/></clipPath><clipPath id="d963c05267"><path d="M 183.726562 20.152344 C 123.8125 20.152344 75.246094 68.722656 75.246094 128.636719 C 75.246094 188.550781 123.8125 237.117188 183.726562 237.117188 C 243.640625 237.117188 292.207031 188.550781 292.207031 128.636719 C 292.207031 68.722656 243.640625 20.152344 183.726562 20.152344 Z M 183.726562 20.152344 " clip-rule="nonzero"/></clipPath><clipPath id="aee892795f"><path d="M 123 172 L 288 172 L 288 268.214844 L 123 268.214844 Z M 123 172 " clip-rule="nonzero"/></clipPath><clipPath id="6fa3df10b2"><path d="M 42.617188 96.464844 L 320 96.464844 L 320 264 L 42.617188 264 Z M 42.617188 96.464844 " clip-rule="nonzero"/></clipPath></defs><g clip-path="url(#a5f787fe7f)"><g clip-path="url(#d963c05267)"><path fill="#ffdfc5" d="M 75.246094 20.152344 L 292.207031 20.152344 L 292.207031 237.117188 L 75.246094 237.117188 Z M 75.246094 20.152344 " fill-opacity="1" fill-rule="nonzero"/></g></g><g clip-path="url(#aee892795f)"><path fill="#f9a832" d="M 155.058594 180.492188 C 155.058594 180.492188 173.199219 216.296875 141.25 234.753906 C 139.378906 235.867188 138.441406 238.035156 139.085938 240.144531 L 142.949219 253.503906 C 143.414062 255.085938 144.761719 256.203125 146.398438 256.378906 L 154.941406 257.257812 C 158.101562 257.550781 160.328125 260.480469 159.800781 263.644531 C 159.507812 265.636719 157.808594 267.101562 155.820312 267.21875 L 139.261719 268.097656 C 137.390625 268.214844 135.691406 267.21875 134.8125 265.578125 L 124.28125 242.957031 C 122.585938 239.324219 122.761719 235.046875 124.808594 231.648438 C 127.5 227.253906 129.957031 218.523438 126.328125 201.589844 L 135.457031 173.34375 L 150.554688 175.335938 Z M 220.597656 188.460938 L 262.140625 195.316406 L 276.359375 207.566406 C 278.757812 209.96875 282.621094 210.261719 285.3125 208.152344 C 287.59375 206.335938 288.0625 202.996094 286.25 200.710938 L 275.308594 186.351562 C 273.433594 183.890625 270.742188 182.25 267.757812 181.605469 L 225.863281 172.933594 L 218.957031 181.839844 Z M 220.597656 188.460938 " fill-opacity="1" fill-rule="nonzero"/></g><g clip-path="url(#6fa3df10b2)"><path fill="#fece2f" d="M 319.542969 125.761719 L 317.613281 129.921875 L 316.851562 131.621094 C 316.148438 133.144531 314.628906 134.140625 312.933594 134.082031 C 309.363281 133.964844 302.867188 133.027344 296.195312 128.574219 C 296.195312 128.574219 297.835938 137.773438 308.191406 139.589844 C 308.191406 139.589844 304.332031 147.914062 279.871094 139.589844 L 253.421875 155.414062 C 253.421875 155.414062 247.453125 173.988281 233.820312 186.234375 L 245.875 215.535156 C 246.8125 217.761719 246.925781 220.28125 246.226562 222.566406 L 241.019531 239.617188 C 240.199219 242.253906 237.390625 243.777344 234.699219 242.898438 L 233.878906 242.605469 C 231.714844 241.902344 230.308594 239.910156 230.367188 237.625 L 230.835938 218.230469 L 218.136719 195.257812 C 216.792969 195.667969 215.386719 196.019531 213.925781 196.253906 C 186.074219 200.886719 143.765625 180.84375 143.765625 180.84375 C 143.765625 180.84375 135.046875 220.632812 92.917969 226.199219 L 68.402344 253.503906 C 68.050781 253.855469 67.699219 254.207031 67.230469 254.5 L 55.703125 262.355469 C 54.882812 262.882812 54.007812 263.175781 53.128906 263.175781 C 51.722656 263.175781 50.320312 262.53125 49.441406 261.359375 C 47.863281 259.308594 48.039062 256.4375 49.851562 254.558594 L 61.027344 242.898438 L 76.945312 214.65625 L 90.988281 197.957031 C 92.742188 195.902344 93.679688 193.265625 93.738281 190.628906 C 93.796875 183.480469 95.199219 168.070312 105.148438 157.40625 C 105.148438 157.40625 96.253906 159.28125 77.292969 154.828125 C 77.292969 154.828125 88.996094 155.003906 91.746094 153.890625 C 91.746094 153.890625 61.671875 154.066406 52.601562 136.25 C 52.601562 136.25 59.449219 141.292969 65.242188 142.757812 C 65.242188 142.757812 44.058594 129.746094 42.945312 105.371094 C 42.945312 105.371094 49.617188 121.015625 62.957031 128.984375 C 62.957031 128.984375 59.273438 124.707031 60.148438 121.367188 C 60.148438 121.367188 66.117188 130.273438 88.703125 138.300781 C 88.53125 138.125 84.902344 135.253906 85.664062 132.734375 C 85.664062 132.734375 97.074219 140 117.84375 140.351562 C 138.617188 140.707031 168.695312 141.46875 200.992188 129.394531 C 233.410156 117.265625 248.566406 109.121094 248.566406 109.121094 L 248.976562 103.261719 C 248.976562 103.261719 248.976562 101.152344 252.953125 99.921875 C 256.875 98.691406 262.433594 96.816406 262.433594 96.816406 C 262.433594 96.816406 265.769531 96.464844 266.882812 99.804688 C 267.992188 103.144531 268.34375 104.257812 268.34375 104.257812 L 283.792969 103.789062 C 283.792969 103.789062 292.335938 103.554688 294.675781 114.453125 L 295.320312 118.554688 L 313.808594 120.546875 L 316.734375 120.839844 C 319.132812 121.074219 320.539062 123.59375 319.542969 125.761719 Z M 319.542969 125.761719 " fill-opacity="1" fill-rule="nonzero"/></g><path fill="#f9a832" d="M 217.554688 195.667969 C 217.320312 195.667969 217.144531 195.550781 216.96875 195.375 C 212.636719 189.867188 209.246094 184.066406 206.785156 178.089844 C 206.144531 176.566406 205.910156 175.160156 206.085938 173.929688 C 206.261719 172.40625 207.136719 171.117188 207.839844 170.0625 C 212.519531 162.914062 217.496094 155.765625 222.644531 148.910156 C 222.878906 148.558594 223.347656 148.5 223.640625 148.734375 C 223.988281 148.96875 224.046875 149.4375 223.816406 149.730469 C 218.722656 156.585938 213.75 163.675781 209.070312 170.824219 C 208.425781 171.820312 207.722656 172.933594 207.546875 174.105469 C 207.429688 175.101562 207.605469 176.214844 208.132812 177.5625 C 210.53125 183.363281 213.867188 189.105469 218.082031 194.4375 C 218.3125 194.730469 218.253906 195.199219 217.964844 195.492188 C 217.847656 195.667969 217.671875 195.667969 217.554688 195.667969 Z M 235.226562 187.699219 C 235.574219 187.523438 235.808594 187.113281 235.632812 186.761719 C 234.699219 184.417969 233.234375 181.957031 231.890625 179.613281 C 231.011719 178.089844 230.132812 176.625 229.433594 175.21875 C 229.257812 174.867188 228.789062 174.691406 228.4375 174.867188 C 228.085938 175.042969 227.910156 175.511719 228.085938 175.863281 C 228.789062 177.328125 229.664062 178.792969 230.601562 180.316406 C 231.949219 182.660156 233.351562 185.0625 234.289062 187.289062 C 234.40625 187.582031 234.699219 187.757812 234.992188 187.757812 C 235.050781 187.757812 235.167969 187.757812 235.226562 187.699219 Z M 143.414062 186.9375 C 145.347656 182.191406 145.640625 175.277344 145.699219 173.050781 C 145.699219 172.640625 145.40625 172.289062 144.996094 172.289062 C 144.585938 172.289062 144.234375 172.582031 144.234375 172.992188 C 144.117188 175.21875 143.824219 181.898438 142.011719 186.410156 C 141.835938 186.761719 142.070312 187.230469 142.421875 187.347656 C 142.539062 187.40625 142.597656 187.40625 142.714844 187.40625 C 143.066406 187.40625 143.296875 187.230469 143.414062 186.9375 Z M 268.226562 121.132812 C 268.988281 120.546875 269.28125 119.667969 269.457031 118.847656 C 270.683594 114.042969 269.921875 109.238281 269.046875 104.667969 C 268.988281 104.257812 268.578125 104.023438 268.167969 104.082031 C 267.757812 104.140625 267.523438 104.550781 267.582031 104.960938 C 268.460938 109.355469 269.164062 113.984375 267.992188 118.4375 C 267.875 118.964844 267.640625 119.609375 267.230469 119.902344 C 266.707031 120.3125 265.886719 120.195312 265.359375 119.902344 C 264.65625 119.492188 264.132812 118.847656 263.605469 118.144531 C 262.84375 117.089844 262.082031 115.917969 261.320312 114.804688 C 258.921875 111.171875 256.40625 107.421875 252.488281 105.429688 C 252.136719 105.253906 251.667969 105.371094 251.492188 105.722656 C 251.316406 106.074219 251.433594 106.542969 251.785156 106.71875 C 255.414062 108.59375 257.753906 112.167969 260.09375 115.625 C 260.855469 116.738281 261.613281 117.910156 262.433594 119.023438 C 263.019531 119.785156 263.722656 120.664062 264.65625 121.191406 C 265.183594 121.484375 265.769531 121.660156 266.355469 121.660156 C 267.171875 121.71875 267.757812 121.542969 268.226562 121.132812 Z M 237.859375 242.722656 C 238.96875 240.730469 239.203125 238.738281 239.4375 235.632812 C 239.496094 235.222656 239.144531 234.871094 238.792969 234.871094 C 238.382812 234.8125 238.035156 235.164062 238.035156 235.515625 C 237.800781 238.386719 237.566406 240.261719 236.628906 242.019531 C 236.453125 242.371094 236.570312 242.839844 236.921875 243.015625 C 237.039062 243.074219 237.15625 243.132812 237.273438 243.132812 C 237.507812 243.074219 237.742188 242.957031 237.859375 242.722656 Z M 233.820312 242.078125 C 235.574219 239.96875 235.867188 237.917969 236.042969 234.988281 C 236.042969 234.578125 235.75 234.226562 235.34375 234.226562 C 234.933594 234.167969 234.582031 234.519531 234.582031 234.929688 C 234.40625 237.917969 234.171875 239.5 232.707031 241.199219 C 232.476562 241.492188 232.476562 241.960938 232.765625 242.253906 C 232.882812 242.371094 233.058594 242.429688 233.234375 242.429688 C 233.46875 242.371094 233.644531 242.253906 233.820312 242.078125 Z M 50.671875 262.179688 C 54.121094 261.242188 57.28125 259.191406 60.324219 256.027344 C 60.617188 255.734375 60.617188 255.265625 60.324219 254.96875 C 60.03125 254.675781 59.566406 254.675781 59.273438 254.96875 C 56.40625 257.960938 53.480469 259.835938 50.320312 260.714844 C 49.910156 260.832031 49.675781 261.242188 49.792969 261.59375 C 49.910156 261.945312 50.203125 262.121094 50.496094 262.121094 C 50.554688 262.238281 50.613281 262.238281 50.671875 262.179688 Z M 49.324219 259.425781 C 52.191406 258.078125 54.179688 256.320312 56.523438 254.089844 C 56.816406 253.796875 56.816406 253.328125 56.582031 253.035156 C 56.289062 252.742188 55.820312 252.742188 55.527344 252.976562 C 53.1875 255.148438 51.371094 256.789062 48.679688 258.019531 C 48.328125 258.195312 48.15625 258.605469 48.328125 259.015625 C 48.445312 259.308594 48.738281 259.425781 48.972656 259.425781 C 49.148438 259.484375 49.265625 259.484375 49.324219 259.425781 Z M 49.324219 259.425781 " fill-opacity="1" fill-rule="nonzero"/><path fill="#e87434" d="M 285.488281 207.859375 C 285.136719 207.859375 284.84375 207.625 284.785156 207.273438 C 284.316406 204.871094 283.207031 203.875 281.101562 201.941406 C 280.808594 201.648438 280.75 201.238281 281.042969 200.886719 C 281.335938 200.59375 281.742188 200.535156 282.09375 200.828125 C 284.144531 202.644531 285.664062 203.933594 286.25 206.921875 C 286.308594 207.332031 286.074219 207.683594 285.664062 207.800781 C 285.605469 207.859375 285.546875 207.859375 285.488281 207.859375 Z M 281.742188 209.675781 C 282.152344 209.558594 282.386719 209.148438 282.269531 208.796875 C 281.683594 206.628906 280.574219 204.519531 279.109375 202.820312 C 278.875 202.527344 278.410156 202.46875 278.058594 202.761719 C 277.765625 202.996094 277.707031 203.464844 278 203.816406 C 279.34375 205.398438 280.339844 207.273438 280.867188 209.207031 C 280.925781 209.558594 281.277344 209.734375 281.566406 209.734375 C 281.566406 209.675781 281.625 209.675781 281.742188 209.675781 Z M 159.390625 263.996094 C 159.742188 263.820312 159.917969 263.410156 159.742188 263 C 158.511719 260.480469 156.640625 259.601562 154.359375 258.664062 C 154.007812 258.546875 153.539062 258.722656 153.421875 259.074219 C 153.304688 259.425781 153.480469 259.894531 153.832031 260.011719 C 156.054688 260.832031 157.460938 261.535156 158.453125 263.585938 C 158.570312 263.820312 158.863281 263.996094 159.097656 263.996094 C 159.15625 264.054688 159.273438 263.996094 159.390625 263.996094 Z M 156.464844 267.042969 C 156.875 266.925781 157.050781 266.515625 156.933594 266.105469 C 156.347656 264.289062 155.234375 262.882812 153.421875 261.652344 C 153.070312 261.417969 152.601562 261.535156 152.425781 261.828125 C 152.191406 262.179688 152.308594 262.648438 152.601562 262.824219 C 154.183594 263.878906 155.058594 264.992188 155.527344 266.515625 C 155.644531 266.808594 155.9375 267.042969 156.230469 267.042969 C 156.347656 267.042969 156.40625 267.042969 156.464844 267.042969 Z M 156.464844 267.042969 " fill-opacity="1" fill-rule="nonzero"/><path fill="#492f2e" d="M 319.542969 125.761719 L 317.613281 129.921875 C 317.496094 129.863281 317.4375 129.746094 317.320312 129.6875 C 315.097656 127.636719 313.632812 123.242188 313.808594 120.488281 L 316.734375 120.78125 C 319.132812 121.074219 320.539062 123.59375 319.542969 125.761719 Z M 285.839844 110.9375 C 284.84375 110.9375 284.027344 111.757812 284.027344 112.753906 C 284.027344 113.75 284.84375 114.570312 285.839844 114.570312 C 286.835938 114.570312 287.652344 113.75 287.652344 112.753906 C 287.652344 111.757812 286.835938 110.9375 285.839844 110.9375 Z M 285.839844 110.9375 " fill-opacity="1" fill-rule="nonzero"/><path fill="#112243" d="M 215.425781 49.207031 C 201.804688 49.980469 187.410156 74.359375 182.609375 85.148438 C 171.113281 66.695312 140.453125 46.566406 130.308594 70.816406 C 121.96875 90.75 156.300781 110.941406 176.007812 116.0625 C 182.546875 116.417969 184.316406 116.515625 193.109375 111.554688 C 216.457031 91.75 241.707031 47.726562 215.425781 49.207031 Z M 163.738281 70.75 C 167.25 74.839844 170.210938 79.316406 172.882812 83.921875 C 165.671875 75.550781 154.65625 65.921875 143.675781 62.957031 C 150.46875 61.347656 158.296875 66.695312 163.738281 70.75 Z M 134.140625 71.007812 C 137.75 77.867188 151.210938 88.5625 158.007812 93.550781 C 140.066406 83.601562 133.496094 72.394531 134.140625 71.007812 Z M 132.691406 77.0625 C 135.203125 82.023438 140.519531 86.082031 145.382812 89.65625 C 154.011719 97.964844 162.902344 106.660156 173.691406 112.457031 C 157.941406 106.433594 132.597656 92.265625 132.691406 77.0625 Z M 177.296875 99.863281 C 169.535156 91.972656 162 86.46875 151.5 76.257812 C 182.707031 97.738281 180.96875 103.601562 177.296875 99.863281 Z M 219.582031 53.070312 C 206.183594 60.125 187.667969 94.613281 187.085938 95.582031 C 193.429688 68.015625 209.535156 48.949219 219.582031 53.070312 Z M 208.535156 70.332031 C 223.574219 51.105469 212.527344 65.019531 200.613281 84.214844 C 175.332031 124.953125 199.421875 81.957031 208.535156 70.332031 Z M 222.09375 62.859375 C 215.78125 73.746094 208.246094 84.019531 199.613281 93.585938 C 215.332031 69.59375 226.183594 47.144531 222.09375 62.859375 Z M 222.09375 62.859375 " fill-opacity="1" fill-rule="nonzero"/><g fill="#f9a832" fill-opacity="1"><g transform="translate(21.24373, 321.266129)"><g><path d="M 23.863281 -24.871094 L 11.296875 -24.871094 L 11.296875 -48.363281 L 2.015625 -48.363281 L 2.015625 0 L 11.296875 0 L 11.296875 -21.265625 L 23.863281 -21.265625 L 23.863281 0 L 33.144531 0 L 33.144531 -48.363281 L 23.863281 -48.363281 Z M 23.863281 -24.871094 "/></g></g></g><g fill="#f9a832" fill-opacity="1"><g transform="translate(56.348787, 321.266129)"><g><path d="M 18.773438 0.796875 C 28.105469 0.796875 35.371094 -3.234375 35.371094 -15.324219 L 35.371094 -48.363281 L 26.089844 -48.363281 L 26.089844 -13.3125 C 26.089844 -4.242188 22.167969 -2.863281 18.773438 -2.863281 C 15.644531 -2.863281 11.347656 -4.1875 11.347656 -13.3125 L 11.296875 -48.363281 L 2.015625 -48.363281 L 2.015625 -15.324219 C 2.015625 -3.339844 9.4375 0.796875 18.773438 0.796875 Z M 18.773438 0.796875 "/></g></g></g><g fill="#f9a832" fill-opacity="1"><g transform="translate(93.681047, 321.266129)"><g><path d="M 18.402344 0.6875 C 27.257812 0.6875 35.316406 -4.453125 35 -13.363281 C 34.523438 -25.71875 11.453125 -33.410156 11.453125 -40.355469 C 11.453125 -43.804688 14.105469 -45.445312 17.5 -45.445312 C 22.433594 -45.445312 28.902344 -41.839844 30.597656 -35.582031 L 33.195312 -35.582031 L 34.257812 -43.378906 C 30.546875 -47.089844 24.074219 -49.160156 17.976562 -49.160156 C 10.023438 -49.160156 2.8125 -45.445312 2.8125 -37.546875 C 2.8125 -26.355469 26.9375 -19.195312 26.9375 -9.652344 C 26.9375 -6.203125 24.605469 -3.339844 19.886719 -3.339844 C 14.425781 -3.339844 8.007812 -7.902344 5.621094 -15.378906 L 3.074219 -15.378906 L 2.015625 -7 C 5.460938 -1.855469 12.25 0.6875 18.402344 0.6875 Z M 18.402344 0.6875 "/></g></g></g><g fill="#f9a832" fill-opacity="1"><g transform="translate(130.589088, 321.266129)"><g><path d="M 11.296875 0 L 11.296875 -17.871094 L 16.386719 -24.871094 C 18.507812 -17.289062 25.878906 -6.257812 27.683594 0 L 36.960938 0 C 35.054688 -8.167969 24.023438 -21.902344 21.476562 -31.765625 L 33.566406 -48.363281 L 25.933594 -48.363281 C 25.402344 -45.445312 24.816406 -41.683594 19.675781 -34.574219 L 11.296875 -22.910156 L 11.296875 -48.363281 L 2.015625 -48.363281 L 2.015625 0 Z M 11.296875 0 "/></g></g></g><g fill="#f9a832" fill-opacity="1"><g transform="translate(168.504668, 321.266129)"><g><path d="M 12.355469 0 L 12.355469 -48.363281 L 3.074219 -48.363281 L 3.074219 0 Z M 12.355469 0 "/></g></g></g><g fill="#f9a832" fill-opacity="1"><g transform="translate(183.883018, 321.266129)"><g/></g></g><g fill="#112243" fill-opacity="1"><g transform="translate(197.161715, 321.266129)"><g><path d="M 40.566406 -24.605469 L 36.113281 -7.582031 L 26.566406 -48.363281 L 17.289062 -48.363281 L 22.539062 -25.933594 L 17.660156 -7.53125 L 8.167969 -48.363281 L -1.113281 -48.363281 L 10.234375 0 L 19.410156 0 L 24.289062 -18.453125 L 28.636719 0 L 37.863281 -0.0546875 L 45.289062 -28.160156 L 50.589844 -48.363281 L 44.28125 -48.363281 Z M 40.566406 -24.605469 "/></g></g></g><g fill="#112243" fill-opacity="1"><g transform="translate(248.122365, 321.266129)"><g><path d="M 12.355469 0 L 12.355469 -48.363281 L 3.074219 -48.363281 L 3.074219 0 Z M 12.355469 0 "/></g></g></g><g fill="#112243" fill-opacity="1"><g transform="translate(263.500715, 321.266129)"><g><path d="M 18.402344 0.6875 C 27.257812 0.6875 35.316406 -4.453125 35 -13.363281 C 34.523438 -25.71875 11.453125 -33.410156 11.453125 -40.355469 C 11.453125 -43.804688 14.105469 -45.445312 17.5 -45.445312 C 22.433594 -45.445312 28.902344 -41.839844 30.597656 -35.582031 L 33.195312 -35.582031 L 34.257812 -43.378906 C 30.546875 -47.089844 24.074219 -49.160156 17.976562 -49.160156 C 10.023438 -49.160156 2.8125 -45.445312 2.8125 -37.546875 C 2.8125 -26.355469 26.9375 -19.195312 26.9375 -9.652344 C 26.9375 -6.203125 24.605469 -3.339844 19.886719 -3.339844 C 14.425781 -3.339844 8.007812 -7.902344 5.621094 -15.378906 L 3.074219 -15.378906 L 2.015625 -7 C 5.460938 -1.855469 12.25 0.6875 18.402344 0.6875 Z M 18.402344 0.6875 "/></g></g></g><g fill="#112243" fill-opacity="1"><g transform="translate(300.408756, 321.266129)"><g><path d="M 11.296875 0 L 11.296875 -17.871094 L 16.386719 -24.871094 C 18.507812 -17.289062 25.878906 -6.257812 27.683594 0 L 36.960938 0 C 35.054688 -8.167969 24.023438 -21.902344 21.476562 -31.765625 L 33.566406 -48.363281 L 25.933594 -48.363281 C 25.402344 -45.445312 24.816406 -41.683594 19.675781 -34.574219 L 11.296875 -22.910156 L 11.296875 -48.363281 L 2.015625 -48.363281 L 2.015625 0 Z M 11.296875 0 "/></g></g></g><g fill="#112243" fill-opacity="1"><g transform="translate(338.324335, 321.266129)"><g><path d="M 12.355469 0 L 12.355469 -48.363281 L 3.074219 -48.363281 L 3.074219 0 Z M 12.355469 0 "/></g></g></g></svg>